<svg width="16" height="16" viewBox="0 0 16 16" fill="none" xmlns="http://www.w3.org/2000/svg">
<g clip-path="url(#clip0_16_20)">
<path d="M6 0.5C6 0.223858 6.22386 0 6.5 0H9.5C9.77614 0 10 0.223858 10 0.5V0.5C10 0.776142 9.77614 1 9.5 1H8.414L8 2L5.89 7.48H10.11L8 2L8.414 1L11.11 7.48H15V6.5C15 6.22386 15.2239 6 15.5 6V6C15.7761 6 16 6.22386 16 6.5V9.5C16 9.77614 15.7761 10 15.5 10V10C15.2239 10 15 9.77614 15 9.5V8.48H11.5L14 15L14.3592 14.6408C14.7695 14.2305 15 13.674 15 13.0938V12.5C15 12.2239 15.2239 12 15.5 12V12C15.7761 12 16 12.2239 16 12.5V13.3203C16 14.0206 15.7218 14.6922 15.2266 15.1874L15.1874 15.2266C14.6922 15.7218 14.0206 16 13.3203 16H12.5C12.2239 16 12 15.7761 12 15.5V15.5C12 15.2239 12.2239 15 12.5 15H13L10.5 8.48H5.5L3 15H3.5C3.77614 15 4 15.2239 4 15.5V15.5C4 15.7761 3.77614 16 3.5 16H2.67974C1.97943 16 1.3078 15.7218 0.81261 15.2266L0.773391 15.1874C0.278197 14.6922 4.76837e-07 14.0206 4.76837e-07 13.3203V12.5C4.76837e-07 12.2239 0.223858 12 0.5 12V12C0.776143 12 1 12.2239 1 12.5V13.0938C1 13.674 1.23049 14.2305 1.64076 14.6408L2 15L4.5 8.48H0.999998L1 9.5C1 9.77614 0.776143 10 0.5 10V10C0.223858 10 4.76837e-07 9.77614 4.76837e-07 9.5V6.5C4.76837e-07 6.22386 0.223858 6 0.499999 6V6C0.776141 6 0.999998 6.22386 0.999998 6.5V7.48H4.89L7.586 1H6.5C6.22386 1 6 0.776142 6 0.5V0.5Z" fill="#2563EB"/>
<path d="M0 2.56066C0 1.88153 0.269783 1.23022 0.75 0.75V0.75C1.23022 0.269783 1.88153 0 2.56066 0H3.5C3.77614 0 4 0.223858 4 0.5V0.5C4 0.776142 3.77614 1 3.5 1H2.70711C2.25435 1 1.82014 1.17986 1.5 1.5V1.5C1.17986 1.82014 1 2.25435 1 2.70711V3.5C1 3.77614 0.776142 4 0.5 4V4C0.223858 4 0 3.77614 0 3.5V2.56066Z" fill="#2563EB"/>
<path d="M13.4393 0C14.1185 0 14.7698 0.269783 15.25 0.75V0.75C15.7302 1.23022 16 1.88153 16 2.56066V3.5C16 3.77614 15.7761 4 15.5 4V4C15.2239 4 15 3.77614 15 3.5V2.70711C15 2.25435 14.8201 1.82014 14.5 1.5V1.5C14.1799 1.17986 13.7456 1 13.2929 1L12.5 1C12.2239 1 12 0.776142 12 0.5V0.5C12 0.223858 12.2239 0 12.5 0L13.4393 0Z" fill="#2563EB"/>
<rect x="6" y="15" width="4" height="1" rx="0.5" fill="#2563EB"/>
</g>
<defs>
<clipPath id="clip0_16_20">
<rect width="16" height="16" fill="white"/>
</clipPath>
</defs>
</svg>
