<svg width="16" height="16" viewBox="0 0 16 16" fill="none" xmlns="http://www.w3.org/2000/svg">
<path d="M0 2.56066C0 1.88153 0.269783 1.23022 0.75 0.75V0.75C1.23022 0.269783 1.88153 0 2.56066 0H3.5C3.77614 0 4 0.223858 4 0.5V0.5C4 0.776142 3.77614 1 3.5 1H2.70711C2.25435 1 1.82014 1.17986 1.5 1.5V1.5C1.17986 1.82014 1 2.25435 1 2.70711V3.5C1 3.77614 0.776142 4 0.5 4V4C0.223858 4 0 3.77614 0 3.5V2.56066Z" fill="black"/>
<path d="M2.56066 16C1.88153 16 1.23022 15.7302 0.75 15.25V15.25C0.269783 14.7698 0 14.1185 0 13.4393L0 12.5C0 12.2239 0.223858 12 0.5 12V12C0.776142 12 1 12.2239 1 12.5V13.2929C1 13.7456 1.17986 14.1799 1.5 14.5V14.5C1.82014 14.8201 2.25435 15 2.70711 15H3.5C3.77614 15 4 15.2239 4 15.5V15.5C4 15.7761 3.77614 16 3.5 16H2.56066Z" fill="black"/>
<path d="M16 13.4393C16 14.1185 15.7302 14.7698 15.25 15.25V15.25C14.7698 15.7302 14.1185 16 13.4393 16H12.5C12.2239 16 12 15.7761 12 15.5V15.5C12 15.2239 12.2239 15 12.5 15H13.2929C13.7456 15 14.1799 14.8201 14.5 14.5V14.5C14.8201 14.1799 15 13.7456 15 13.2929V12.5C15 12.2239 15.2239 12 15.5 12V12C15.7761 12 16 12.2239 16 12.5V13.4393Z" fill="black"/>
<path d="M13.4393 0C14.1185 0 14.7698 0.269783 15.25 0.75V0.75C15.7302 1.23022 16 1.88153 16 2.56066V3.5C16 3.77614 15.7761 4 15.5 4V4C15.2239 4 15 3.77614 15 3.5V2.70711C15 2.25435 14.8201 1.82014 14.5 1.5V1.5C14.1799 1.17986 13.7456 1 13.2929 1L12.5 1C12.2239 1 12 0.776142 12 0.5V0.5C12 0.223858 12.2239 0 12.5 0L13.4393 0Z" fill="black"/>
<rect y="6" width="1" height="4" rx="0.5" fill="black"/>
<rect x="15" y="6" width="1" height="4" rx="0.5" fill="black"/>
<rect x="6" y="1" width="1" height="4" rx="0.5" transform="rotate(-90 6 1)" fill="black"/>
<rect x="6" y="16" width="1" height="4" rx="0.5" transform="rotate(-90 6 16)" fill="black"/>
<rect x="1" y="7.5" width="14" height="1" fill="black"/>
<path d="M8 1H8.5L14.5 15H13.5L8 1.866L3 15H2L7.5 1H8Z" fill="black"/>
</svg>
